<svg xmlns="http://www.w3.org/2000/svg" version="1.1" xmlns:xlink="http://www.w3.org/1999/xlink" width="512" height="512" x="0" y="0" viewBox="0 0 24 24" style="enable-background:new 0 0 512 512" xml:space="preserve" class=""><g><path fill="#f0b90b" d="M12 1C5.9 1 1 5.9 1 12s4.9 11 11 11 11-4.9 11-11S18.1 1 12 1zM9.2 7.6l1.1-1.1L12 4.8l1.7 1.7 1.1 1.1 1.6 1.6-1.7 1.7-1.6-1.6L12 8.2l-1.1 1.1-1.6 1.6-1.7-1.7zm4.4 4.4L12 13.6 10.4 12l1.6-1.6zm-8.8 0 1.7-1.7L8.2 12l-1.7 1.7zm7.2 7.2-1.7-1.7-1.1-1.1-1.6-1.6 1.7-1.7 1.6 1.6 1.1 1.1 1.1-1.1 1.6-1.6 1.7 1.7zm5.5-5.5L15.8 12l1.7-1.7 1.7 1.7z" opacity="1" data-original="#f0b90b" class=""></path></g></svg>